<?xml version="1.0" standalone="no"?>
<!DOCTYPE svg PUBLIC "-//W3C//DTD SVG 20010904//EN"
 "http://www.w3.org/TR/2001/REC-SVG-20010904/DTD/svg10.dtd">
<svg version="1.0" xmlns="http://www.w3.org/2000/svg"
 width="2000.000000pt" height="550.000000pt" viewBox="0 0 2000.000000 550.000000"
 preserveAspectRatio="xMidYMid meet">
<metadata>
Created by potrace 1.16, written by Peter Selinger 2001-2019
</metadata>
<g transform="translate(0.000000,550.000000) scale(0.100000,-0.100000)"
fill="#000000" stroke="none">
<path d="M7413 4380 c-167 -17 -269 -32 -280 -40 -35 -27 -43 -44 -43 -91 0
-37 5 -52 28 -74 27 -27 28 -27 122 -22 52 4 150 10 217 13 l122 7 3 -1404 3
-1404 22 -47 c24 -52 46 -68 96 -68 71 0 110 65 123 207 l7 72 48 -43 c94 -85
245 -171 376 -215 139 -47 371 -65 535 -41 103 15 244 64 332 116 85 50 230
185 283 264 133 198 196 424 196 710 0 306 -69 534 -223 738 -196 261 -475
384 -834 369 -261 -10 -441 -74 -641 -228 l-65 -50 0 590 c0 351 -4 600 -10
615 -12 33 -59 56 -112 55 -24 -1 -161 -14 -305 -29z m1345 -1186 c43 -8 117
-35 169 -60 193 -93 338 -295 399 -559 26 -111 27 -384 1 -504 -38 -175 -123
-337 -237 -451 -140 -140 -336 -201 -583 -179 -129 11 -230 39 -347 96 -84 42
-108 60 -207 159 l-113 113 0 531 0 532 62 65 c138 143 325 238 523 266 77 11
261 6 333 -9z"/>
<path d="M639 4374 c-71 -30 -92 -118 -40 -176 l29 -33 211 -3 211 -3 0 -1335
0 -1334 -235 0 c-193 0 -242 -3 -275 -16 -65 -26 -89 -95 -53 -154 34 -58 -42
-55 1357 -55 1251 0 1292 1 1319 19 57 39 57 38 57 492 l0 416 -34 34 c-47 47
-101 48 -152 1 l-35 -32 -24 -350 c-12 -193 -23 -351 -24 -352 -1 -2 -370 -3
-821 -3 l-820 0 0 655 0 655 434 0 435 0 5 -42 c4 -24 13 -118 21 -210 16
-188 27 -222 81 -244 42 -17 74 -10 106 23 l23 25 3 516 c1 284 0 528 -3 540
-15 60 -93 91 -143 56 -40 -28 -52 -69 -68 -232 -8 -86 -17 -172 -20 -189 l-5
-33 -434 0 -435 0 0 575 0 575 815 0 815 0 0 -27 c0 -49 30 -577 36 -622 12
-92 108 -134 179 -77 l30 24 0 425 0 426 -29 30 c-17 17 -46 36 -65 41 -23 6
-471 10 -1226 9 -1026 0 -1195 -2 -1226 -15z"/>
<path d="M4698 3411 c-80 -26 -135 -61 -196 -123 -68 -70 -118 -145 -159 -238
-18 -41 -33 -73 -33 -70 -1 3 -5 79 -9 170 -5 93 -14 177 -21 191 -14 30 -48
49 -88 49 -43 0 -484 -90 -518 -106 -61 -29 -74 -116 -25 -165 38 -37 58 -37
246 1 81 17 152 30 157 30 4 0 8 -376 8 -835 l0 -835 -150 0 c-178 0 -212 -10
-236 -66 -19 -46 -11 -83 27 -120 l30 -29 407 -3 c224 -2 421 0 439 3 17 3 45
19 62 34 24 23 31 37 31 68 0 88 -49 113 -225 113 l-126 0 3 618 3 617 27 80
c36 104 88 192 165 275 83 90 162 132 259 138 64 4 77 2 123 -23 78 -43 129
-121 159 -244 13 -57 16 -173 19 -830 5 -844 2 -809 68 -837 43 -18 494 -20
544 -3 79 28 82 158 4 198 -13 7 -86 11 -192 11 l-171 0 0 569 c0 601 5 684
45 784 58 144 176 282 291 338 87 43 191 51 251 21 47 -25 97 -79 118 -129 50
-118 48 -97 54 -940 l6 -793 33 -32 32 -33 238 -3 c153 -2 250 1 274 8 87 25
95 169 12 200 -14 6 -95 10 -180 10 l-154 0 0 633 c0 783 -7 858 -91 1035 -46
95 -135 194 -209 232 -257 131 -557 1 -726 -314 -34 -62 -35 -62 -54 -1 -84
267 -338 421 -572 346z"/>
<path d="M11645 3415 c-419 -68 -740 -302 -877 -638 -62 -151 -73 -221 -72
-447 1 -187 3 -213 26 -301 55 -202 137 -349 268 -479 168 -167 399 -278 660
-316 164 -24 405 -15 550 19 262 63 449 155 567 279 57 62 72 105 54 161 -18
52 -45 72 -100 72 -51 0 -76 -14 -181 -101 -203 -168 -477 -247 -773 -224
-150 12 -266 42 -382 100 -203 100 -338 259 -398 470 -26 88 -52 268 -42 279
4 3 384 9 845 12 460 4 856 10 878 14 52 8 114 62 137 117 34 81 19 295 -31
441 -39 116 -90 195 -183 287 -128 127 -250 193 -445 241 -110 27 -374 34
-501 14z m470 -230 c33 -9 101 -36 152 -61 72 -36 105 -59 149 -107 95 -102
161 -268 179 -444 l7 -73 -389 0 c-215 0 -587 -3 -827 -7 l-438 -6 7 39 c13
77 48 180 86 254 114 221 327 366 607 416 104 18 385 12 467 -11z"/>
<path d="M15655 3415 c-234 -33 -430 -106 -565 -210 -58 -45 -171 -160 -207
-210 l-21 -29 -6 139 c-10 239 -27 285 -102 285 -56 0 -535 -98 -561 -115 -51
-34 -55 -114 -8 -161 32 -32 76 -31 260 6 81 17 154 30 162 30 11 0 13 -139
11 -832 l-3 -833 -265 -5 c-146 -3 -273 -9 -282 -13 -49 -24 -65 -109 -31
-156 40 -52 8 -51 911 -51 770 0 846 1 872 17 71 41 67 154 -7 192 -15 8 -163
11 -482 11 l-461 0 0 597 0 596 36 66 c85 155 193 255 369 341 161 79 372 130
542 130 l72 0 3 -194 c3 -190 4 -195 27 -220 51 -54 132 -52 187 5 l29 30 3
242 c3 239 3 243 -20 277 -40 60 -84 75 -233 77 -71 1 -175 -4 -230 -12z"/>
<path d="M18135 3414 c-287 -39 -483 -151 -569 -325 -43 -89 -56 -151 -56
-273 1 -262 163 -426 501 -507 68 -16 285 -61 481 -99 404 -79 456 -96 524
-173 56 -63 78 -136 72 -235 -11 -179 -118 -290 -326 -338 -171 -40 -433 -37
-606 7 -102 25 -265 104 -333 161 -115 96 -160 181 -174 325 -7 82 -13 101
-33 121 -34 34 -89 34 -123 -1 -37 -36 -41 -82 -42 -445 l-1 -304 29 -28 c36
-36 73 -46 112 -30 46 20 59 55 59 165 l0 97 68 -62 c116 -107 261 -180 441
-221 125 -29 429 -37 568 -15 429 68 638 279 619 626 -9 177 -45 270 -140 363
-71 70 -199 135 -326 167 -47 12 -240 53 -430 91 -385 77 -430 88 -510 129
-113 57 -169 158 -157 286 20 213 203 314 566 314 307 0 516 -57 651 -178 77
-69 107 -128 119 -235 12 -102 20 -120 61 -137 24 -10 39 -10 71 -1 73 22 74
26 77 367 3 336 1 348 -59 380 -42 21 -88 11 -125 -27 -26 -27 -29 -38 -33
-110 l-3 -80 -45 42 c-85 78 -285 153 -488 184 -121 18 -304 18 -440 -1z"/>
</g>
</svg>
